<?xml version="1.0" encoding="utf-8"?>
<!-- Generator: Adobe Illustrator 18.1.0, SVG Export Plug-In . SVG Version: 6.00 Build 0)  -->
<svg version="1.1" id="Layer_1" xmlns="http://www.w3.org/2000/svg" xmlns:xlink="http://www.w3.org/1999/xlink" x="0px" y="0px"
	 viewBox="0 0 268.5 259" enable-background="new 0 0 268.5 259" xml:space="preserve">
<path d="M109.4,120.1c0,0,0.4,1.4,0.3,3l10.5,3l-0.5-4.3l-5.3-1.7c0,0-0.8-0.3-2-0.2S109.4,120.1,109.4,120.1z"/>
<g>
	<defs>
		<polygon id="SVGID_1_" points="60.5,120.7 69.3,122.6 67.2,127.2 61.5,126.4 		"/>
	</defs>
	<clipPath id="SVGID_2_">
		<use xlink:href="#SVGID_1_"  overflow="visible"/>
	</clipPath>
	<ellipse clip-path="url(#SVGID_2_)" cx="65.1" cy="122.3" rx="3" ry="4.1"/>
</g>
<g>
	<defs>
		<polygon id="SVGID_3_" points="94.9,106.7 92.4,109.5 97.4,114.5 121.2,118.5 120.1,126.9 119.7,127.5 119.3,129.3 136.4,132.8 
			196.3,115.3 190.3,111.5 136.9,94.5 125.2,95.1 		"/>
	</defs>
	<clipPath id="SVGID_4_">
		<use xlink:href="#SVGID_3_"  overflow="visible"/>
	</clipPath>
	<polygon clip-path="url(#SVGID_4_)" fill="none" stroke="#000000" stroke-width="4" stroke-miterlimit="10" points="133.5,127.6 
		110.7,121.5 84.5,114.4 95.2,111.1 133.5,99.3 183.6,114.4 	"/>
</g>
<g>
	<g>
		<path d="M214.7,35.1L209,60.6h31.5l-46.7,167.3h-59.7h-0.3H74.2L25.8,60.6h33.7l-6.3-25.5H214.7 M218.4,32.1h-3.7H53.2h-3.8
			l0.9,3.7l5.4,21.8H25.8h-4l1.1,3.8l48.3,167.3l0.6,2.2h2.3h59.7h0.3h59.7h2.3l0.6-2.2l46.7-167.3l1.1-3.8h-4h-27.8l4.9-21.8
			L218.4,32.1L218.4,32.1z"/>
	</g>
</g>
<path d="M166.9,190.8c0,0-10,0.2-14.2-1.2c0,0-11.2-2.8-19.5-2.8s-19.5,2.8-19.5,2.8c-4.2,1.5-14.2,1.2-14.2,1.2H62.7l1,5.5h69.4
	h71.4l1.1-5.5H166.9z"/>
<text transform="matrix(1 0 0 1 82.5024 61.0534)" stroke="#000000" stroke-width="0.1" stroke-miterlimit="10" font-family="'Montserrat-Bold'" font-size="12">PENNSYLVANIA</text>
<text transform="matrix(1 0 0 1 38.8613 76.8868)"><tspan x="0" y="0" stroke="#000000" stroke-width="0.1" stroke-miterlimit="10" font-family="'Montserrat-Bold'" font-size="12">A</tspan><tspan x="8.8" y="0" stroke="#000000" stroke-width="0.1" stroke-miterlimit="10" font-family="'Montserrat-Bold'" font-size="12">U</tspan><tspan x="17.8" y="0" stroke="#000000" stroke-width="0.1" stroke-miterlimit="10" font-family="'Montserrat-Bold'" font-size="12">T</tspan><tspan x="25" y="0" stroke="#000000" stroke-width="0.1" stroke-miterlimit="10" font-family="'Montserrat-Bold'" font-size="12">O CRIME INVE</tspan><tspan x="115.4" y="0" stroke="#000000" stroke-width="0.1" stroke-miterlimit="10" font-family="'Montserrat-Bold'" font-size="12">S</tspan><tspan x="123" y="0" stroke="#000000" stroke-width="0.1" stroke-miterlimit="10" font-family="'Montserrat-Bold'" font-size="12">TIG</tspan><tspan x="144.2" y="0" stroke="#000000" stroke-width="0.1" stroke-miterlimit="10" font-family="'Montserrat-Bold'" font-size="12">A</tspan><tspan x="152.6" y="0" stroke="#000000" stroke-width="0.1" stroke-miterlimit="10" font-family="'Montserrat-Bold'" font-size="12">T</tspan><tspan x="159.7" y="0" stroke="#000000" stroke-width="0.1" stroke-miterlimit="10" font-family="'Montserrat-Bold'" font-size="12">ORS</tspan></text>
<text transform="matrix(1 0 0 1 87.9688 214.5534)" stroke="#000000" stroke-width="0.1" stroke-miterlimit="10" font-family="'Montserrat-Bold'" font-size="12">ASSOCIATION</text>
<polygon points="201.5,201.7 197.8,214.9 109.6,147.1 117.4,136.9 "/>
<circle cx="133.2" cy="113.4" r="8.8"/>
<polygon points="133.5,86.3 129.6,86.3 130.2,97.3 133.5,96.1 136.7,97 137.4,86.3 "/>
<polygon points="133.2,142.2 130.8,142.2 131.5,131.5 134,132.4 136.3,131.5 137.2,142.2 "/>
<path d="M140.9,179.5l-4.5-45h-5l-4.1,45.4c0,0.1,0,0.2,0,0.4l0,0.3l0,0c0,0.1,0,0.1,0,0.2c0,3.8,3.1,6.9,6.9,6.9s6.9-3.1,6.9-6.9
	C141,180.3,141,179.9,140.9,179.5z"/>
<g>
	<defs>
		<polygon id="SVGID_5_" points="139.4,135.7 128.1,136.8 130.8,126.5 137.2,126.5 		"/>
	</defs>
	<clipPath id="SVGID_6_">
		<use xlink:href="#SVGID_5_"  overflow="visible"/>
	</clipPath>
	<polygon clip-path="url(#SVGID_6_)" fill="none" stroke="#000000" stroke-width="4" stroke-miterlimit="10" points="133.5,132.9 
		84.5,119.7 133.5,104.6 183.5,119.7 	"/>
</g>
<g>
	<defs>
		<polygon id="SVGID_7_" points="94.6,122 79.9,122.3 66.4,160.4 77.4,173.4 97.8,170.4 		"/>
	</defs>
	<clipPath id="SVGID_8_">
		<use xlink:href="#SVGID_7_"  overflow="visible"/>
	</clipPath>
	<g clip-path="url(#SVGID_8_)">
		<path d="M72.9,160.1c0.5,6,5.5,10.7,11.7,10.7c6.1,0,11.2-4.7,11.7-10.7H72.9z"/>
		<line fill="none" stroke="#000000" stroke-width="1.5" stroke-miterlimit="10" x1="84.6" y1="110.4" x2="84.6" y2="163.4"/>
		<polyline fill="none" stroke="#000000" stroke-width="1.5" stroke-miterlimit="10" points="73.6,160.4 84.4,110.4 95.5,160.4 		
			"/>
	</g>
</g>
<g>
	<defs>
		<polygon id="SVGID_9_" points="173.4,117.3 196.9,113.6 207.1,160.4 196.1,173.4 175.8,170.4 		"/>
	</defs>
	<clipPath id="SVGID_10_">
		<use xlink:href="#SVGID_9_"  overflow="visible"/>
	</clipPath>
	<g clip-path="url(#SVGID_10_)">
		<path d="M200.6,160.1c-0.5,6-5.5,10.7-11.7,10.7c-6.1,0-11.2-4.7-11.7-10.7H200.6z"/>
		<line fill="none" stroke="#000000" stroke-width="1.5" stroke-miterlimit="10" x1="189" y1="110.4" x2="189" y2="163.4"/>
		<polyline fill="none" stroke="#000000" stroke-width="1.5" stroke-miterlimit="10" points="199.9,160.4 189.1,110.4 178,160.4 		
			"/>
	</g>
</g>
<ellipse cx="75.5" cy="123.5" rx="2.8" ry="3.8"/>
<ellipse cx="105.9" cy="122" rx="2.7" ry="3.7"/>
<path d="M72.2,121.2c0,0-0.4,1.2-0.3,2.8c0,0-18.2-2.5-18.8-3c0,0-0.5-1.9-0.3-2.6L72.2,121.2z"/>
<g>
	<defs>
		<path id="SVGID_11_" d="M53.6,117.5l19.3,2.8c0,0,1-1.6,2.6-1.5c0,0,1.8-0.1,2.9,1.9l24.4-1.2c0,0,1-2.4,3.1-2.3
			c0,0,1.9-0.1,2.9,2l5.9-0.3l-3.1-6.8l-10.9-0.2l-11.1-7.5l-19,1l-16.5,7.9L53.6,117.5z"/>
	</defs>
	<clipPath id="SVGID_12_">
		<use xlink:href="#SVGID_11_"  overflow="visible"/>
	</clipPath>
	<path clip-path="url(#SVGID_12_)" d="M102.7,114c-2.5,0.2-5.4-2.4-5.4-2.4c-5.5-5.2-15.2-5.2-15.2-5.2c-12.9-0.8-15.3,4.5-15.3,4.5
		c-1.6,3.1-7.1,2.7-7.1,2.7c-6.8,0-6.8,7.9-6.8,7.9l21.6,0.8l39.4-1.6C113.8,113.6,102.7,114,102.7,114z M73.1,113.5h-4.9
		c2.9-3.8,6.9-4.2,6.9-4.2C73.9,110.5,73.1,113.5,73.1,113.5z M77.7,113.5c0.2-2.6,2.1-4,2.1-4c1.9-0.4,4.7,0,4.7,0l0.6,4H77.7z
		 M87.8,113.5l-0.5-3.6c0,0,6.1,0.3,7.9,3.6H87.8z"/>
</g>
<g>
	<defs>
		<polygon id="SVGID_13_" points="91.8,122 92,126.4 99.4,126.4 99.2,122 		"/>
	</defs>
	<clipPath id="SVGID_14_">
		<use xlink:href="#SVGID_13_"  overflow="visible"/>
	</clipPath>
	<ellipse clip-path="url(#SVGID_14_)" cx="95.2" cy="121.4" rx="3" ry="4.1"/>
</g>
<path d="M78.9,121.8c0,0,0.3,1,0.2,2.2l23.2-1.5c0,0,0-1.8,0.2-2.1L78.9,121.8z"/>
<circle fill="none" stroke="#000000" stroke-width="3" stroke-miterlimit="10" cx="86.4" cy="120.1" r="34.8"/>
</svg>
