<?xml version="1.0" encoding="utf-8"?>
<!-- Generator: Adobe Illustrator 18.1.0, SVG Export Plug-In . SVG Version: 6.00 Build 0)  -->
<svg version="1.1" id="Layer_1" xmlns="http://www.w3.org/2000/svg" xmlns:xlink="http://www.w3.org/1999/xlink" x="0px" y="0px"
	 viewBox="0 0 268.5 259" enable-background="new 0 0 268.5 259" xml:space="preserve">
<g>
	<path fill="#FFFFFF" d="M109.8,120.1c0,0,0.4,1.4,0.3,3l10.5,3l-0.5-4.3l-5.3-1.7c0,0-0.8-0.3-2-0.2S109.8,120.1,109.8,120.1z"/>
	<g>
		<defs>
			<polygon id="SVGID_1_" points="60.9,120.7 69.6,122.6 67.6,127.2 61.9,126.4 			"/>
		</defs>
		<clipPath id="SVGID_2_">
			<use xlink:href="#SVGID_1_"  overflow="visible"/>
		</clipPath>
		<ellipse clip-path="url(#SVGID_2_)" fill="#FFFFFF" cx="65.5" cy="122.3" rx="3" ry="4.1"/>
	</g>
	<g>
		<defs>
			<polygon id="SVGID_3_" points="95.2,106.7 92.8,109.5 97.7,114.5 121.6,118.5 120.5,126.9 120,127.5 119.6,129.3 136.8,132.8 
				196.6,115.3 190.6,111.5 137.2,94.5 125.5,95.1 			"/>
		</defs>
		<clipPath id="SVGID_4_">
			<use xlink:href="#SVGID_3_"  overflow="visible"/>
		</clipPath>
		<polygon clip-path="url(#SVGID_4_)" fill="none" stroke="#FFFFFF" stroke-width="4" stroke-miterlimit="10" points="133.9,127.6 
			111.1,121.5 84.9,114.4 95.5,111.1 133.9,99.3 183.9,114.4 		"/>
	</g>
	<g>
		<g>
			<path fill="#FFFFFF" d="M215,35.1l-5.7,25.5h31.5l-46.7,167.3h-59.7h-0.3H74.5L26.2,60.6h33.7l-6.3-25.5H215 M218.7,32.1H215
				H53.5h-3.8l0.9,3.7L56,57.6H26.2h-4l1.1,3.8l48.3,167.3l0.6,2.2h2.3h59.7h0.3h59.7h2.3l0.6-2.2l46.7-167.3l1.1-3.8h-4h-27.8
				l4.9-21.8L218.7,32.1L218.7,32.1z"/>
		</g>
	</g>
	<path fill="#FFFFFF" d="M167.2,190.8c0,0-10,0.2-14.2-1.2c0,0-11.2-2.8-19.5-2.8s-19.5,2.8-19.5,2.8c-4.2,1.5-14.2,1.2-14.2,1.2
		H63.1l1,5.5h69.4h71.4l1.1-5.5H167.2z"/>
	
		<text transform="matrix(1 0 0 1 82.843 61.0534)" fill="#FFFFFF" stroke="#FFFFFF" stroke-width="0.1" stroke-miterlimit="10" font-family="'Montserrat-Bold'" font-size="12">PENNSYLVANIA</text>
	<text transform="matrix(1 0 0 1 39.2019 76.8868)"><tspan x="0" y="0" fill="#FFFFFF" stroke="#FFFFFF" stroke-width="0.1" stroke-miterlimit="10" font-family="'Montserrat-Bold'" font-size="12">A</tspan><tspan x="8.8" y="0" fill="#FFFFFF" stroke="#FFFFFF" stroke-width="0.1" stroke-miterlimit="10" font-family="'Montserrat-Bold'" font-size="12">U</tspan><tspan x="17.8" y="0" fill="#FFFFFF" stroke="#FFFFFF" stroke-width="0.1" stroke-miterlimit="10" font-family="'Montserrat-Bold'" font-size="12">T</tspan><tspan x="25" y="0" fill="#FFFFFF" stroke="#FFFFFF" stroke-width="0.1" stroke-miterlimit="10" font-family="'Montserrat-Bold'" font-size="12">O CRIME INVE</tspan><tspan x="115.4" y="0" fill="#FFFFFF" stroke="#FFFFFF" stroke-width="0.1" stroke-miterlimit="10" font-family="'Montserrat-Bold'" font-size="12">S</tspan><tspan x="123" y="0" fill="#FFFFFF" stroke="#FFFFFF" stroke-width="0.1" stroke-miterlimit="10" font-family="'Montserrat-Bold'" font-size="12">TIG</tspan><tspan x="144.2" y="0" fill="#FFFFFF" stroke="#FFFFFF" stroke-width="0.1" stroke-miterlimit="10" font-family="'Montserrat-Bold'" font-size="12">A</tspan><tspan x="152.6" y="0" fill="#FFFFFF" stroke="#FFFFFF" stroke-width="0.1" stroke-miterlimit="10" font-family="'Montserrat-Bold'" font-size="12">T</tspan><tspan x="159.7" y="0" fill="#FFFFFF" stroke="#FFFFFF" stroke-width="0.1" stroke-miterlimit="10" font-family="'Montserrat-Bold'" font-size="12">ORS</tspan></text>
	
		<text transform="matrix(1 0 0 1 88.3093 214.5534)" fill="#FFFFFF" stroke="#FFFFFF" stroke-width="0.1" stroke-miterlimit="10" font-family="'Montserrat-Bold'" font-size="12">ASSOCIATION</text>
	<polygon fill="#FFFFFF" points="201.8,201.7 198.1,214.9 109.9,147.1 117.7,136.9 	"/>
	<circle fill="#FFFFFF" cx="133.5" cy="113.4" r="8.8"/>
	<polygon fill="#FFFFFF" points="133.8,86.3 129.9,86.3 130.5,97.3 133.8,96.1 137.1,97 137.8,86.3 	"/>
	<polygon fill="#FFFFFF" points="133.5,142.2 131.1,142.2 131.9,131.5 134.3,132.4 136.7,131.5 137.6,142.2 	"/>
	<path fill="#FFFFFF" d="M141.2,179.5l-4.5-45h-5l-4.1,45.4c0,0.1,0,0.2,0,0.4l0,0.3l0,0c0,0.1,0,0.1,0,0.2c0,3.8,3.1,6.9,6.9,6.9
		s6.9-3.1,6.9-6.9C141.4,180.3,141.3,179.9,141.2,179.5z"/>
	<g>
		<defs>
			<polygon id="SVGID_5_" points="139.7,135.7 128.5,136.8 131.1,126.5 137.6,126.5 			"/>
		</defs>
		<clipPath id="SVGID_6_">
			<use xlink:href="#SVGID_5_"  overflow="visible"/>
		</clipPath>
		<polygon clip-path="url(#SVGID_6_)" fill="none" stroke="#FFFFFF" stroke-width="4" stroke-miterlimit="10" points="133.8,132.9 
			84.8,119.7 133.8,104.6 183.8,119.7 		"/>
	</g>
	<g>
		<defs>
			<polygon id="SVGID_7_" points="95,122 80.2,122.3 66.8,160.4 77.8,173.4 98.1,170.4 			"/>
		</defs>
		<clipPath id="SVGID_8_">
			<use xlink:href="#SVGID_7_"  overflow="visible"/>
		</clipPath>
		<g clip-path="url(#SVGID_8_)">
			<path fill="#FFFFFF" d="M73.2,160.1c0.5,6,5.5,10.7,11.7,10.7c6.1,0,11.2-4.7,11.7-10.7H73.2z"/>
			<line fill="none" stroke="#FFFFFF" stroke-width="1.5" stroke-miterlimit="10" x1="84.9" y1="110.4" x2="84.9" y2="163.4"/>
			<polyline fill="none" stroke="#FFFFFF" stroke-width="1.5" stroke-miterlimit="10" points="74,160.4 84.7,110.4 95.9,160.4 			
				"/>
		</g>
	</g>
	<g>
		<defs>
			<polygon id="SVGID_9_" points="173.8,117.3 197.3,113.6 207.4,160.4 196.4,173.4 176.1,170.4 			"/>
		</defs>
		<clipPath id="SVGID_10_">
			<use xlink:href="#SVGID_9_"  overflow="visible"/>
		</clipPath>
		<g clip-path="url(#SVGID_10_)">
			<path fill="#FFFFFF" d="M201,160.1c-0.5,6-5.5,10.7-11.7,10.7c-6.1,0-11.2-4.7-11.7-10.7H201z"/>
			<line fill="none" stroke="#FFFFFF" stroke-width="1.5" stroke-miterlimit="10" x1="189.3" y1="110.4" x2="189.3" y2="163.4"/>
			<polyline fill="none" stroke="#FFFFFF" stroke-width="1.5" stroke-miterlimit="10" points="200.3,160.4 189.5,110.4 178.3,160.4 
							"/>
		</g>
	</g>
	<ellipse fill="#FFFFFF" cx="75.9" cy="123.5" rx="2.8" ry="3.9"/>
	<ellipse fill="#FFFFFF" cx="106.3" cy="122" rx="2.8" ry="3.8"/>
	<path fill="#FFFFFF" d="M72.5,121.2c0,0-0.4,1.2-0.3,2.8c0,0-18.2-2.5-18.8-3c0,0-0.5-1.9-0.3-2.6L72.5,121.2z"/>
	<g>
		<defs>
			<path id="SVGID_11_" d="M53.9,117.5l19.3,2.8c0,0,1-1.6,2.6-1.5c0,0,1.8-0.1,2.9,1.9l24.4-1.2c0,0,1-2.4,3.1-2.3
				c0,0,1.9-0.1,2.9,2l5.9-0.3l-3.1-6.8l-10.9-0.2L90,104.5l-19,1l-16.5,7.9L53.9,117.5z"/>
		</defs>
		<clipPath id="SVGID_12_">
			<use xlink:href="#SVGID_11_"  overflow="visible"/>
		</clipPath>
		<path clip-path="url(#SVGID_12_)" fill="#FFFFFF" d="M103,114c-2.5,0.2-5.4-2.4-5.4-2.4c-5.5-5.2-15.2-5.2-15.2-5.2
			c-12.9-0.8-15.3,4.5-15.3,4.5c-1.6,3.1-7.1,2.7-7.1,2.7c-6.8,0-6.8,7.9-6.8,7.9l21.6,0.8l39.4-1.6C114.2,113.6,103,114,103,114z
			 M73.4,113.5h-4.9c2.9-3.8,6.9-4.2,6.9-4.2C74.3,110.5,73.4,113.5,73.4,113.5z M78,113.5c0.2-2.6,2.1-4,2.1-4c1.9-0.4,4.7,0,4.7,0
			l0.6,4H78z M88.1,113.5l-0.5-3.6c0,0,6.1,0.3,7.9,3.6H88.1z"/>
	</g>
	<g>
		<defs>
			<polygon id="SVGID_13_" points="92.1,122 92.3,126.4 99.8,126.4 99.6,122 			"/>
		</defs>
		<clipPath id="SVGID_14_">
			<use xlink:href="#SVGID_13_"  overflow="visible"/>
		</clipPath>
		<ellipse clip-path="url(#SVGID_14_)" fill="#FFFFFF" cx="95.5" cy="121.4" rx="3" ry="4.1"/>
	</g>
	<path fill="#FFFFFF" d="M79.2,121.8c0,0,0.3,1,0.2,2.2l23.2-1.5c0,0,0-1.8,0.2-2.1L79.2,121.8z"/>
	<circle fill="none" stroke="#FFFFFF" stroke-width="3" stroke-miterlimit="10" cx="86.8" cy="120.1" r="34.8"/>
</g>
</svg>
